<?xml version="1.0" standalone="no"?>
<!DOCTYPE svg PUBLIC "-//W3C//DTD SVG 20010904//EN"
 "http://www.w3.org/TR/2001/REC-SVG-20010904/DTD/svg10.dtd">
<svg version="1.0" xmlns="http://www.w3.org/2000/svg"
 width="246.000000pt" height="200.000000pt" viewBox="0 0 246.000000 200.000000"
 preserveAspectRatio="xMidYMid meet">
<metadata>
Created by potrace 1.16, written by Peter Selinger 2001-2019
</metadata>
<g transform="translate(0.000000,200.000000) scale(0.100000,-0.100000)"
fill="#000000" stroke="none">
<path d="M530 1911 c-30 -9 -74 -29 -97 -44 -54 -34 -119 -116 -135 -170 -16
-53 -15 -171 2 -223 27 -82 105 -179 229 -284 36 -30 91 -77 122 -105 32 -27
80 -69 107 -93 63 -53 139 -158 170 -236 22 -54 24 -71 20 -167 -4 -92 -8
-112 -31 -152 -32 -54 -93 -104 -149 -124 -60 -21 -184 -27 -250 -14 -66 14
-115 44 -143 88 -18 29 -25 32 -72 33 -64 0 -69 -14 -18 -59 74 -65 178 -95
325 -95 167 0 285 38 360 115 125 129 133 335 21 528 -48 81 -137 168 -347
336 -203 163 -269 273 -244 412 15 86 39 131 96 182 59 52 104 64 223 59 82
-3 105 -8 155 -33 108 -55 199 -192 235 -360 17 -76 55 -301 102 -610 41 -267
102 -418 212 -528 85 -86 255 -126 387 -93 98 25 166 64 221 126 66 74 89 138
89 244 0 108 -24 186 -85 275 -49 71 -168 194 -240 247 -90 66 -226 189 -270
244 -63 81 -79 132 -72 229 6 89 22 133 68 186 51 57 98 75 204 74 53 0 99 -5
112 -12 30 -16 103 -86 103 -98 0 -5 20 -9 45 -9 25 0 45 2 45 5 0 16 -38 60
-74 84 -72 49 -133 63 -259 59 -104 -3 -117 -5 -181 -38 -78 -39 -122 -89
-157 -180 -17 -45 -20 -71 -17 -141 4 -76 8 -93 42 -155 50 -92 123 -165 346
-350 79 -65 200 -200 230 -256 54 -101 60 -266 14 -363 -22 -46 -76 -100 -129
-128 -33 -17 -58 -21 -140 -22 -94 0 -105 2 -167 33 -80 39 -139 103 -191 208
-49 97 -60 147 -128 553 -76 461 -110 576 -207 700 -80 103 -170 141 -326 140
-68 0 -119 -6 -156 -18z"/>
</g>
</svg>
